<svg width="50" height="50" xmlns="http://www.w3.org/2000/svg">

 <g>
  <title>background</title>
  <rect fill="#007bff" id="canvas_background" height="52" width="52" y="-1" x="-1"/>
 </g>
 <g>
  <title>Layer 1</title>
  <g stroke="null" id="svg_42">
   <g stroke="null" id="svg_24">
    <g stroke="null" transform="matrix(0.2009186022698923,0,0,0.15708135096267076,1.1447951092893841e-7,0.000002314096909812862) " id="svg_7">
     <path stroke="null" id="svg_8" d="m54.026999,226.469166c-3.866,0 -7,3.134 -7,7l0,12.151c0,3.866 3.134,7 7,7s7,-3.134 7,-7l0,-12.151c0,-3.866 -3.133,-7 -7,-7z"/>
     <path stroke="null" id="svg_9" d="m82.027999,226.469166c-3.866,0 -7,3.134 -7,7l0,12.151c0,3.866 3.134,7 7,7s7,-3.134 7,-7l0,-12.151c0,-3.866 -3.133,-7 -7,-7z"/>
     <path stroke="null" id="svg_10" d="m110.029999,226.469166c-3.866,0 -7,3.134 -7,7l0,12.151c0,3.866 3.134,7 7,7s7,-3.134 7,-7l0,-12.151c0,-3.866 -3.134,-7 -7,-7z"/>
     <path stroke="null" id="svg_11" d="m135.256999,226.469166c-3.866,0 -7,3.134 -7,7l0,12.151c0,3.866 3.134,7 7,7s7,-3.134 7,-7l0,-12.151c0,-3.866 -3.134,-7 -7,-7z"/>
     <path stroke="null" id="svg_12" d="m163.258999,226.469166c-3.866,0 -7,3.134 -7,7l0,12.151c0,3.866 3.134,7 7,7s7,-3.134 7,-7l0,-12.151c0,-3.866 -3.134,-7 -7,-7z"/>
     <path stroke="null" id="svg_13" d="m191.259999,226.469166c-3.866,0 -7,3.134 -7,7l0,12.151c0,3.866 3.134,7 7,7s7,-3.134 7,-7l0,-12.151c0,-3.866 -3.134,-7 -7,-7z"/>
     <path stroke="null" id="svg_14" d="m54.026999,187.394166c-3.866,0 -7,3.134 -7,7l0,12.151c0,3.866 3.134,7 7,7s7,-3.134 7,-7l0,-12.151c0,-3.866 -3.133,-7 -7,-7z"/>
     <path stroke="null" id="svg_15" d="m82.027999,187.394166c-3.866,0 -7,3.134 -7,7l0,12.151c0,3.866 3.134,7 7,7s7,-3.134 7,-7l0,-12.151c0,-3.866 -3.133,-7 -7,-7z"/>
     <path stroke="null" id="svg_16" d="m110.029999,187.394166c-3.866,0 -7,3.134 -7,7l0,12.151c0,3.866 3.134,7 7,7s7,-3.134 7,-7l0,-12.151c0,-3.866 -3.134,-7 -7,-7z"/>
     <path stroke="null" id="svg_17" d="m135.256999,187.394166c-3.866,0 -7,3.134 -7,7l0,12.151c0,3.866 3.134,7 7,7s7,-3.134 7,-7l0,-12.151c0,-3.866 -3.134,-7 -7,-7z"/>
     <path stroke="null" id="svg_18" d="m163.258999,187.394166c-3.866,0 -7,3.134 -7,7l0,12.151c0,3.866 3.134,7 7,7s7,-3.134 7,-7l0,-12.151c0,-3.866 -3.134,-7 -7,-7z"/>
     <path stroke="null" id="svg_19" d="m191.259999,187.394166c-3.866,0 -7,3.134 -7,7l0,12.151c0,3.866 3.134,7 7,7s7,-3.134 7,-7l0,-12.151c0,-3.866 -3.134,-7 -7,-7z"/>
     <path stroke="null" id="svg_20" d="m94.641999,115.894166c-3.866,0 -7,3.134 -7,7l0,12.151c0,3.866 3.134,7 7,7s7,-3.134 7,-7l0,-12.151c0,-3.866 -3.134,-7 -7,-7z"/>
     <path stroke="null" id="svg_21" d="m122.643999,115.894166c-3.866,0 -7,3.134 -7,7l0,12.151c0,3.866 3.134,7 7,7s7,-3.134 7,-7l0,-12.151c0,-3.866 -3.134,-7 -7,-7z"/>
     <path stroke="null" id="svg_22" d="m150.645999,115.894166c-3.866,0 -7,3.134 -7,7l0,12.151c0,3.866 3.134,7 7,7s7,-3.134 7,-7l0,-12.151c0,-3.866 -3.134,-7 -7,-7z"/>
     <path stroke="null" id="svg_23" d="m238.286999,153.358166l-51.836,0l0,-60.169c0,-3.866 -3.134,-7 -7,-7l-113.615,0c-3.866,0 -7,3.134 -7,7l0,60.168l-51.836,0c-3.866,0 -7,3.134 -7,7s3.134,7 7,7l6.581,0l0,142.9c0,3.866 3.134,7 7,7l204.125,0c3.866,0 7,-3.134 7,-7l0,-142.9l6.581,0c3.866,0 7,-3.134 7,-7s-3.134,-6.999 -7,-6.999zm-81.149,149.9l-27.542,0c0.029,-0.26 0.048,-0.524 0.048,-0.792l0,-10.518l27.494,0l0,11.31zm-41.447,0l-27.542,0l0,-11.31l27.494,0l0,10.518c0.001,0.268 0.019,0.531 0.048,0.792zm55.447,0l0,-18.31c0,-3.866 -3.134,-7 -7,-7l-82.989,0c-3.866,0 -7,3.134 -7,7l0,18.31l-46.568,0l0,-135.9l190.125,0l0,135.9l-46.568,0zm-98.302,-203.069l99.615,0l0,53.168l-99.615,0l0,-53.168z"/>
    </g>
   </g>
   <g stroke="null" id="svg_41">
    <g stroke="null" transform="matrix(0.06789413200497962,0,0,0.06193645319380177,-317.52632651587123,-266.62890717742545) " id="svg_28">
     <g stroke="null" id="svg_29">
      <path stroke="null" id="svg_30" d="m4706.856918,4481.103453l-0.5,13l-11,0l0,-99.9l12.7,0l0,39.3c6,-8.2 16,-13.3 27.2,-13.3c19.8,0 34.3,17 34.3,38c0,21 -14.5,38 -34.3,38c-11.9,-0.1 -22.4,-6 -28.4,-15.1m50,-23c0,-17.3 -11.2,-27.8 -24.8,-27.8c-13.7,0 -24.8,10.5 -24.8,27.8c0,17.3 11.2,27.8 24.8,27.8c13.6,0 24.8,-10.5 24.8,-27.8"/>
      <path stroke="null" id="svg_31" d="m4780.956918,4458.103453c0,-21 16,-38.6 39.3,-38.6c23.2,0 39.1,17.7 39.1,38.6c0,21.2 -16,38.6 -39.1,38.6c-23.3,0 -39.3,-17.5 -39.3,-38.6m65.8,0c0,-15.7 -10.2,-28.5 -26.5,-28.5c-16.5,0 -26.7,12.8 -26.7,28.5c0,15.8 10.3,28.5 26.7,28.5c16.4,0 26.5,-12.7 26.5,-28.5"/>
      <path stroke="null" id="svg_32" d="m4870.956918,4458.103453c0,-21 14.5,-38 34.3,-38c11.8,0 22.3,5.8 28.3,15l0.5,-13l11,0l0,72l-11,0l-0.5,-13c-6,9.2 -16.5,15 -28.3,15c-19.8,0 -34.3,-17 -34.3,-38m62.3,0c0,-17.3 -11.2,-27.8 -24.8,-27.8c-13.7,0 -24.8,10.5 -24.8,27.8c0,17.3 11.2,27.8 24.8,27.8c13.6,0 24.8,-10.5 24.8,-27.8"/>
      <path stroke="null" id="svg_33" d="m4962.356918,4422.103453l11,0l0.8,13.8c4.7,-8.8 15.8,-15.8 28,-15.8l0,13.7c-13.7,-2.5 -27.2,5.3 -27.2,17.5l0,42.8l-12.7,0l0,-72l0.1,0z"/>
      <path stroke="null" id="svg_34" d="m5010.656918,4458.103453c0,-21 14.5,-38 34.3,-38c11.2,0 21.2,5.2 27.2,13.3l0,-39.3l12.7,0l0,100l-11,0l-0.5,-13c-6,9.2 -16.5,15 -28.3,15c-19.9,0 -34.4,-17 -34.4,-38m62.3,0c0,-17.3 -11.2,-27.8 -24.8,-27.8s-24.8,10.5 -24.8,27.8c0,17.3 11.2,27.8 24.8,27.8s24.8,-10.5 24.8,-27.8"/>
      <polygon stroke="null" id="svg_35" points="5093.156738281251,4422.103677749634 5105.656738281251,4422.103677749634 5126.156738281251,4476.203287124634 5146.656738281251,4422.103677749634 5154.156738281251,4422.103677749634 5174.757324218751,4476.203287124634 5195.156738281251,4422.103677749634 5206.956542968751,4422.103677749634 5178.656738281251,4494.203287124634 5170.456542968751,4494.203287124634 5150.156738281251,4442.103677749634 5129.456542968751,4494.203287124634 5121.456542968751,4494.203287124634 "/>
      <path stroke="null" id="svg_36" d="m5214.456918,4458.103453c0,-21 14.5,-38 34.3,-38c11.8,0 22.3,5.8 28.3,15l0.5,-13l11,0l0,72l-11,0l-0.5,-13c-6,9.2 -16.5,15 -28.3,15c-19.8,0 -34.3,-17 -34.3,-38m62.3,0c0,-17.3 -11.2,-27.8 -24.8,-27.8c-13.7,0 -24.8,10.5 -24.8,27.8c0,17.3 11.2,27.8 24.8,27.8c13.6,0 24.8,-10.5 24.8,-27.8"/>
      <rect stroke="null" id="svg_37" height="100" width="12.7" y="4394.103453" x="5302.556918"/>
      <polygon stroke="null" id="svg_38" points="5329.257324218751,4394.103677749634 5341.856933593751,4394.103677749634 5341.856933593751,4452.703287124634 5376.156738281251,4422.103677749634 5391.856933593751,4422.103677749634 5355.156738281251,4454.203287124634 5393.156738281251,4494.103677749634 5376.656738281251,4494.103677749634 5341.856933593751,4456.703287124634 5341.856933593751,4494.103677749634 5329.257324218751,4494.103677749634 "/>
     </g>
     <g stroke="null" id="svg_39">
      <path stroke="null" id="svg_40" d="m5050.756918,4392.203453l-159.7,-87.1c-0.6,-0.3 -1.2,-0.3 -1.8,0l-159.8,87.1c-2.4,1.3 -1.7,6.2 0.9,6.2l319.5,0c2.6,0 3.3,-4.8 0.9,-6.2m-23,-1.1l-169.5,0l29.7,-16.1c1.6,-0.9 2.4,-3.3 1.7,-5.4c-0.7,-2.1 -2.5,-3 -4.1,-2.2l-43.7,23.7l-18.8,0l64.9,-35.1c1.6,-0.9 2.4,-3.3 1.7,-5.4l0,0c-0.6,-2.1 -2.4,-3.1 -4,-2.3l-79,42.8l-22.3,0l103.3,-55.1c1.6,-0.8 2.5,-3.3 2,-5.5c-0.5,-2.2 -2.2,-3.3 -3.8,-2.4l-118.2,63l-14.6,0c-1.2,0 -1.5,-2.2 -0.4,-2.8l137.4,-74.9l138,75.2c1,0.6 0.7,2.5 -0.3,2.5"/>
     </g>
    </g>
   </g>
  </g>
 </g>
</svg>